<?xml version="1.0" encoding="UTF-8" standalone="no"?>
<svg width="26px" height="21px" viewBox="0 0 26 21" version="1.1" xmlns="http://www.w3.org/2000/svg" xmlns:xlink="http://www.w3.org/1999/xlink" xmlns:sketch="http://www.bohemiancoding.com/sketch/ns">
    <!-- Generator: Sketch 3.3.2 (12043) - http://www.bohemiancoding.com/sketch -->
    <title>photo</title>
    <desc>Created with Sketch.</desc>
    <defs></defs>
    <g id="Page-1" stroke="none" stroke-width="1" fill="none" fill-rule="evenodd" sketch:type="MSPage">
        <path d="M17,2.456 L17,2.403 C17,1.628 16.372,1 15.597,1 L10.403,1 C9.628,1 9,1.628 9,2.403 L9,2.456 C9,3.308 8.309,4 7.456,4 L2,4 C1.448,4 1,4.448 1,5 L1,19 C1,19.552 1.448,20 2,20 L24,20 C24.552,20 25,19.552 25,19 L25,5 C25,4.448 24.552,4 24,4 L18.544,4 C17.692,4 17,3.308 17,2.456 L17,2.456 Z M18,12 C18,14.761 15.761,17 13,17 C10.239,17 8,14.761 8,12 C8,9.239 10.239,7 13,7 C15.761,7 18,9.239 18,12 L18,12 Z" id="Imported-Layers-2" stroke="#929292" stroke-width="2" sketch:type="MSShapeGroup"></path>
    </g>
</svg>