<?xml version="1.0" encoding="UTF-8" standalone="no"?>
<svg width="88px" height="16px" viewBox="0 0 88 16" version="1.1" xmlns="http://www.w3.org/2000/svg" xmlns:xlink="http://www.w3.org/1999/xlink" xmlns:sketch="http://www.bohemiancoding.com/sketch/ns">
    <!-- Generator: Sketch 3.2.2 (9983) - http://www.bohemiancoding.com/sketch -->
    <title>Horizont</title>
    <desc>Created with Sketch.</desc>
    <defs></defs>
    <g id="Page-1" stroke="none" stroke-width="1" fill="none" fill-rule="evenodd" sketch:type="MSPage">
        <path d="M0.56,0.84 L3.08,0.84 L3.08,6.56 L9.7,6.56 L9.7,0.84 L12.22,0.84 L12.22,15 L9.7,15 L9.7,8.72 L3.08,8.72 L3.08,15 L0.56,15 L0.56,0.84 Z M15.96,10.16 C15.96,9.3999962 16.0966653,8.7100031 16.37,8.09 C16.6433347,7.4699969 17.013331,6.9400022 17.48,6.5 C17.946669,6.0599978 18.4999968,5.7200012 19.14,5.48 C19.7800032,5.2399988 20.4599964,5.12 21.18,5.12 C21.9000036,5.12 22.5799968,5.2399988 23.22,5.48 C23.8600032,5.7200012 24.413331,6.0599978 24.88,6.5 C25.346669,6.9400022 25.7166653,7.4699969 25.99,8.09 C26.2633347,8.7100031 26.4,9.3999962 26.4,10.16 C26.4,10.9200038 26.2633347,11.6133302 25.99,12.24 C25.7166653,12.8666698 25.346669,13.4033311 24.88,13.85 C24.413331,14.2966689 23.8600032,14.6466654 23.22,14.9 C22.5799968,15.1533346 21.9000036,15.28 21.18,15.28 C20.4599964,15.28 19.7800032,15.1533346 19.14,14.9 C18.4999968,14.6466654 17.946669,14.2966689 17.48,13.85 C17.013331,13.4033311 16.6433347,12.8666698 16.37,12.24 C16.0966653,11.6133302 15.96,10.9200038 15.96,10.16 L15.96,10.16 Z M18.4,10.16 C18.4,10.5333352 18.4566661,10.9066648 18.57,11.28 C18.6833339,11.6533352 18.8533322,11.9866652 19.08,12.28 C19.3066678,12.5733348 19.5933316,12.8133324 19.94,13 C20.2866684,13.1866676 20.6999976,13.28 21.18,13.28 C21.6600024,13.28 22.0733316,13.1866676 22.42,13 C22.7666684,12.8133324 23.0533322,12.5733348 23.28,12.28 C23.5066678,11.9866652 23.6766661,11.6533352 23.79,11.28 C23.9033339,10.9066648 23.96,10.5333352 23.96,10.16 C23.96,9.7866648 23.9033339,9.4166685 23.79,9.05 C23.6766661,8.6833315 23.5066678,8.3533348 23.28,8.06 C23.0533322,7.7666652 22.7666684,7.5300009 22.42,7.35 C22.0733316,7.1699991 21.6600024,7.08 21.18,7.08 C20.6999976,7.08 20.2866684,7.1699991 19.94,7.35 C19.5933316,7.5300009 19.3066678,7.7666652 19.08,8.06 C18.8533322,8.3533348 18.6833339,8.6833315 18.57,9.05 C18.4566661,9.4166685 18.4,9.7866648 18.4,10.16 L18.4,10.16 Z M30.02,5.4 L32.32,5.4 L32.32,7 L32.36,7 C32.626668,6.4399972 32.9999976,5.9866684 33.48,5.64 C33.9600024,5.2933316 34.5199968,5.12 35.16,5.12 C35.2533338,5.12 35.3533328,5.1233333 35.46,5.13 C35.5666672,5.1366667 35.6599996,5.1533332 35.74,5.18 L35.74,7.38 C35.5799992,7.3399998 35.4433339,7.3133334 35.33,7.3 C35.2166661,7.2866666 35.1066672,7.28 35,7.28 C34.4533306,7.28 34.013335,7.379999 33.68,7.58 C33.346665,7.780001 33.0866676,8.0199986 32.9,8.3 C32.7133324,8.5800014 32.586667,8.8666652 32.52,9.16 C32.453333,9.4533348 32.42,9.6866658 32.42,9.86 L32.42,15 L30.02,15 L30.02,5.4 Z M38.64,5.4 L41.04,5.4 L41.04,15 L38.64,15 L38.64,5.4 Z M38.3,2.14 C38.3,1.7533314 38.4433319,1.4166681 38.73,1.13 C39.0166681,0.8433319 39.3799978,0.7 39.82,0.7 C40.2600022,0.7 40.6299985,0.8366653 40.93,1.11 C41.2300015,1.3833347 41.38,1.7266646 41.38,2.14 C41.38,2.5533354 41.2300015,2.8966653 40.93,3.17 C40.6299985,3.4433347 40.2600022,3.58 39.82,3.58 C39.3799978,3.58 39.0166681,3.4366681 38.73,3.15 C38.4433319,2.8633319 38.3,2.5266686 38.3,2.14 L38.3,2.14 Z M44.5,12.88 L49.68,7.32 L44.74,7.32 L44.74,5.4 L52.54,5.4 L52.54,7.52 L47.34,13.04 L52.78,13.04 L52.78,15 L44.5,15 L44.5,12.88 Z M55.64,10.16 C55.64,9.3999962 55.7766653,8.7100031 56.05,8.09 C56.3233347,7.4699969 56.693331,6.9400022 57.16,6.5 C57.626669,6.0599978 58.1799968,5.7200012 58.82,5.48 C59.4600032,5.2399988 60.1399964,5.12 60.86,5.12 C61.5800036,5.12 62.2599968,5.2399988 62.9,5.48 C63.5400032,5.7200012 64.093331,6.0599978 64.56,6.5 C65.026669,6.9400022 65.3966653,7.4699969 65.67,8.09 C65.9433347,8.7100031 66.08,9.3999962 66.08,10.16 C66.08,10.9200038 65.9433347,11.6133302 65.67,12.24 C65.3966653,12.8666698 65.026669,13.4033311 64.56,13.85 C64.093331,14.2966689 63.5400032,14.6466654 62.9,14.9 C62.2599968,15.1533346 61.5800036,15.28 60.86,15.28 C60.1399964,15.28 59.4600032,15.1533346 58.82,14.9 C58.1799968,14.6466654 57.626669,14.2966689 57.16,13.85 C56.693331,13.4033311 56.3233347,12.8666698 56.05,12.24 C55.7766653,11.6133302 55.64,10.9200038 55.64,10.16 L55.64,10.16 Z M58.08,10.16 C58.08,10.5333352 58.1366661,10.9066648 58.25,11.28 C58.3633339,11.6533352 58.5333322,11.9866652 58.76,12.28 C58.9866678,12.5733348 59.2733316,12.8133324 59.62,13 C59.9666684,13.1866676 60.3799976,13.28 60.86,13.28 C61.3400024,13.28 61.7533316,13.1866676 62.1,13 C62.4466684,12.8133324 62.7333322,12.5733348 62.96,12.28 C63.1866678,11.9866652 63.3566661,11.6533352 63.47,11.28 C63.5833339,10.9066648 63.64,10.5333352 63.64,10.16 C63.64,9.7866648 63.5833339,9.4166685 63.47,9.05 C63.3566661,8.6833315 63.1866678,8.3533348 62.96,8.06 C62.7333322,7.7666652 62.4466684,7.5300009 62.1,7.35 C61.7533316,7.1699991 61.3400024,7.08 60.86,7.08 C60.3799976,7.08 59.9666684,7.1699991 59.62,7.35 C59.2733316,7.5300009 58.9866678,7.7666652 58.76,8.06 C58.5333322,8.3533348 58.3633339,8.6833315 58.25,9.05 C58.1366661,9.4166685 58.08,9.7866648 58.08,10.16 L58.08,10.16 Z M69.7,5.4 L71.98,5.4 L71.98,6.94 L72.02,6.94 C72.2333344,6.4599976 72.6033307,6.0366685 73.13,5.67 C73.6566693,5.3033315 74.2799964,5.12 75,5.12 C75.6266698,5.12 76.1633311,5.2299989 76.61,5.45 C77.0566689,5.6700011 77.4233319,5.9599982 77.71,6.32 C77.9966681,6.6800018 78.206666,7.093331 78.34,7.56 C78.473334,8.026669 78.54,8.5066642 78.54,9 L78.54,15 L76.14,15 L76.14,9.68 C76.14,9.3999986 76.1200002,9.1066682 76.08,8.8 C76.0399998,8.4933318 75.953334,8.2166679 75.82,7.97 C75.686666,7.7233321 75.5033345,7.5200008 75.27,7.36 C75.0366655,7.1999992 74.7266686,7.12 74.34,7.12 C73.9533314,7.12 73.6200014,7.1966659 73.34,7.35 C73.0599986,7.5033341 72.8300009,7.6999988 72.65,7.94 C72.4699991,8.1800012 72.3333338,8.4566651 72.24,8.77 C72.1466662,9.0833349 72.1,9.3999984 72.1,9.72 L72.1,15 L69.7,15 L69.7,5.4 Z M81.26,7.32 L81.26,5.4 L82.94,5.4 L82.94,2.62 L85.3,2.62 L85.3,5.4 L87.7,5.4 L87.7,7.32 L85.3,7.32 L85.3,11.78 C85.3,12.2066688 85.3766659,12.5599986 85.53,12.84 C85.6833341,13.1200014 86.026664,13.26 86.56,13.26 C86.7200008,13.26 86.8933324,13.2433335 87.08,13.21 C87.2666676,13.1766665 87.4333326,13.126667 87.58,13.06 L87.66,14.94 C87.4466656,15.0200004 87.1933348,15.0833331 86.9,15.13 C86.6066652,15.1766669 86.326668,15.2 86.06,15.2 C85.4199968,15.2 84.900002,15.1100009 84.5,14.93 C84.099998,14.7499991 83.7833345,14.5033349 83.55,14.19 C83.3166655,13.8766651 83.1566671,13.5166687 83.07,13.11 C82.9833329,12.7033313 82.94,12.266669 82.94,11.8 L82.94,7.32 L81.26,7.32 Z" id="Horizont" fill="#8692A4" sketch:type="MSShapeGroup"></path>
    </g>
</svg>